# Blender v2.82 (sub 7) OBJ File: 'untitled.blend'
# www.blender.org
mtllib lights.mtl
o Cube
v -1.434582 3.067872 1.214699
v -1.434582 1.067872 1.214699
v -1.434582 3.067872 3.214699
v -1.434582 1.067872 3.214699
v -3.434582 3.067872 1.214699
v -3.434582 1.067872 1.214699
v -3.434582 3.067872 3.214699
v -3.434582 1.067872 3.214699
vt 0.625000 0.500000
vt 0.875000 0.500000
vt 0.875000 0.750000
vt 0.625000 0.750000
vt 0.375000 0.750000
vt 0.625000 1.000000
vt 0.375000 1.000000
vt 0.375000 0.000000
vt 0.625000 0.000000
vt 0.625000 0.250000
vt 0.375000 0.250000
vt 0.125000 0.500000
vt 0.375000 0.500000
vt 0.125000 0.750000
vn 0.0000 1.0000 0.0000
vn 0.0000 0.0000 1.0000
vn -1.0000 0.0000 0.0000
vn 0.0000 -1.0000 0.0000
vn 1.0000 0.0000 0.0000
vn 0.0000 0.0000 -1.0000
usemtl Material
s off
f 1/1/1 5/2/1 7/3/1 3/4/1
f 4/5/2 3/4/2 7/6/2 8/7/2
f 8/8/3 7/9/3 5/10/3 6/11/3
f 6/12/4 2/13/4 4/5/4 8/14/4
f 2/13/5 1/1/5 3/4/5 4/5/5
f 6/11/6 5/10/6 1/1/6 2/13/6
o Cube.001
v 2.364489 3.546094 -4.018847
v 2.364489 1.546094 -4.018847
v 2.364489 3.546094 -2.018846
v 2.364489 1.546094 -2.018846
v 0.364489 3.546094 -4.018847
v 0.364489 1.546094 -4.018847
v 0.364489 3.546094 -2.018846
v 0.364489 1.546094 -2.018846
vt 0.625000 0.500000
vt 0.875000 0.500000
vt 0.875000 0.750000
vt 0.625000 0.750000
vt 0.375000 0.750000
vt 0.625000 1.000000
vt 0.375000 1.000000
vt 0.375000 0.000000
vt 0.625000 0.000000
vt 0.625000 0.250000
vt 0.375000 0.250000
vt 0.125000 0.500000
vt 0.375000 0.500000
vt 0.125000 0.750000
vn 0.0000 1.0000 0.0000
vn 0.0000 0.0000 1.0000
vn -1.0000 0.0000 0.0000
vn 0.0000 -1.0000 0.0000
vn 1.0000 0.0000 0.0000
vn 0.0000 0.0000 -1.0000
usemtl Material
s off
f 9/15/7 13/16/7 15/17/7 11/18/7
f 12/19/8 11/18/8 15/20/8 16/21/8
f 16/22/9 15/23/9 13/24/9 14/25/9
f 14/26/10 10/27/10 12/19/10 16/28/10
f 10/27/11 9/15/11 11/18/11 12/19/11
f 14/25/12 13/24/12 9/15/12 10/27/12
o Cube.002
v 3.353070 2.150112 0.508691
v 3.353070 0.150112 0.508691
v 3.353070 2.150112 2.508691
v 3.353070 0.150112 2.508691
v 1.353070 2.150112 0.508691
v 1.353070 0.150112 0.508691
v 1.353070 2.150112 2.508691
v 1.353070 0.150112 2.508691
vt 0.625000 0.500000
vt 0.875000 0.500000
vt 0.875000 0.750000
vt 0.625000 0.750000
vt 0.375000 0.750000
vt 0.625000 1.000000
vt 0.375000 1.000000
vt 0.375000 0.000000
vt 0.625000 0.000000
vt 0.625000 0.250000
vt 0.375000 0.250000
vt 0.125000 0.500000
vt 0.375000 0.500000
vt 0.125000 0.750000
vn 0.0000 1.0000 0.0000
vn 0.0000 0.0000 1.0000
vn -1.0000 0.0000 0.0000
vn 0.0000 -1.0000 0.0000
vn 1.0000 0.0000 0.0000
vn 0.0000 0.0000 -1.0000
usemtl Material
s off
f 17/29/13 21/30/13 23/31/13 19/32/13
f 20/33/14 19/32/14 23/34/14 24/35/14
f 24/36/15 23/37/15 21/38/15 22/39/15
f 22/40/16 18/41/16 20/33/16 24/42/16
f 18/41/17 17/29/17 19/32/17 20/33/17
f 22/39/18 21/38/18 17/29/18 18/41/18
o Cube.003
v -2.062628 4.824100 -3.416042
v -2.062628 2.824100 -3.416042
v -2.062628 4.824100 -1.416042
v -2.062628 2.824100 -1.416042
v -4.062628 4.824100 -3.416042
v -4.062628 2.824100 -3.416042
v -4.062628 4.824100 -1.416042
v -4.062628 2.824100 -1.416042
vt 0.625000 0.500000
vt 0.875000 0.500000
vt 0.875000 0.750000
vt 0.625000 0.750000
vt 0.375000 0.750000
vt 0.625000 1.000000
vt 0.375000 1.000000
vt 0.375000 0.000000
vt 0.625000 0.000000
vt 0.625000 0.250000
vt 0.375000 0.250000
vt 0.125000 0.500000
vt 0.375000 0.500000
vt 0.125000 0.750000
vn 0.0000 1.0000 0.0000
vn 0.0000 0.0000 1.0000
vn -1.0000 0.0000 0.0000
vn 0.0000 -1.0000 0.0000
vn 1.0000 0.0000 0.0000
vn 0.0000 0.0000 -1.0000
usemtl Material
s off
f 25/43/19 29/44/19 31/45/19 27/46/19
f 28/47/20 27/46/20 31/48/20 32/49/20
f 32/50/21 31/51/21 29/52/21 30/53/21
f 30/54/22 26/55/22 28/47/22 32/56/22
f 26/55/23 25/43/23 27/46/23 28/47/23
f 30/53/24 29/52/24 25/43/24 26/55/24
o Plane_Plane.001
v 5.414220 -0.344239 -5.375860
v -5.441955 -0.344239 -5.375860
v 5.414220 -0.344239 5.480315
v -5.441955 -0.344239 5.480315
v 5.414220 -0.132623 5.480315
v 5.414220 -0.132623 -5.375860
v -5.441955 -0.132623 -5.375860
v -5.441955 -0.132623 5.480315
vt 0.000000 0.000000
vt 1.000000 0.000000
vt 1.000000 1.000000
vt 0.000000 1.000000
vt 0.000000 0.000000
vt 0.000000 1.000000
vt 1.000000 1.000000
vt 1.000000 0.000000
vn 0.0000 1.0000 0.0000
vn 0.0000 -1.0000 0.0000
vn 1.0000 0.0000 0.0000
vn -1.0000 0.0000 0.0000
vn 0.0000 0.0000 -1.0000
vn 0.0000 0.0000 1.0000
usemtl None
s off
f 33/57/25 34/58/25 36/59/25 35/60/25
f 38/61/26 37/62/26 40/63/26 39/64/26
f 34/58/27 39/64/27 40/63/27 36/59/27
f 35/60/28 37/62/28 38/61/28 33/57/28
f 36/59/29 40/63/29 37/62/29 35/60/29
f 33/57/30 38/61/30 39/64/30 34/58/30
